<?xml version="1.0" encoding="utf-8"?>
<!-- Generator: Adobe Illustrator 26.0.0, SVG Export Plug-In . SVG Version: 6.00 Build 0)  -->
<svg version="1.1" id="Capa_1" xmlns="http://www.w3.org/2000/svg" xmlns:xlink="http://www.w3.org/1999/xlink" x="0px" y="0px"
	 viewBox="0 0 590.9 105" style="enable-background:new 0 0 590.9 105;" xml:space="preserve">
<style type="text/css">
	.st0{enable-background:new    ;}
	.st1{fill:#282828;}
	.st2{fill:#25AAFF;}
</style>
<g>
	<g class="st0">
		<path class="st1" d="M13,82.3C9,80.1,5.8,77,3.5,73C1.2,69,0,64.6,0,59.6s1.2-9.5,3.5-13.4c2.3-4,5.5-7,9.5-9.3
			c4-2.2,8.4-3.3,13.1-3.3c4.8,0,9.2,1.1,13.1,3.3c4,2.2,7.1,5.3,9.4,9.3c2.3,4,3.5,8.4,3.5,13.4S50.9,69,48.6,73
			c-2.3,4-5.4,7.1-9.4,9.3c-4,2.2-8.4,3.3-13.1,3.3S16.9,84.5,13,82.3z M34.6,69c2.1-2.4,3.1-5.5,3.1-9.4c0-4-1-7.2-3.1-9.5
			s-4.9-3.5-8.5-3.5c-3.6,0-6.5,1.2-8.6,3.5c-2.1,2.3-3.1,5.5-3.1,9.5c0,4,1,7.1,3.1,9.5c2.1,2.3,4.9,3.5,8.6,3.5
			C29.7,72.5,32.5,71.4,34.6,69z"/>
		<path class="st1" d="M77.2,45.9c2-1.1,4.4-1.7,7.1-1.7c3.2,0,6.1,0.8,8.7,2.5c2.6,1.7,4.7,4.1,6.2,7.2c1.5,3.1,2.3,6.8,2.3,10.9
			c0,4.2-0.8,7.8-2.3,11c-1.5,3.1-3.6,5.6-6.2,7.2c-2.6,1.7-5.5,2.5-8.7,2.5c-2.7,0-5.1-0.6-7.1-1.7c-2-1.1-3.6-2.6-4.7-4.5v24.9
			H58.4V44.7h14.1v5.6C73.6,48.5,75.2,47,77.2,45.9z M85.1,58.8c-1.4-1.5-3.2-2.2-5.2-2.2c-2.1,0-3.8,0.7-5.2,2.2
			c-1.4,1.5-2.1,3.5-2.1,6.1c0,2.6,0.7,4.7,2.1,6.2c1.4,1.5,3.2,2.2,5.2,2.2c2.1,0,3.8-0.8,5.2-2.3c1.4-1.5,2.1-3.6,2.1-6.2
			C87.2,62.3,86.5,60.2,85.1,58.8z"/>
		<path class="st1" d="M145.7,67.8H119c0.1,2.2,0.8,3.9,1.8,4.9c1.1,1.1,2.5,1.6,4.1,1.6c2.4,0,4-1.1,5-3.2h15
			c-0.6,2.8-1.8,5.3-3.6,7.5c-1.8,2.2-4.1,3.9-6.8,5.1c-2.7,1.2-5.8,1.9-9.1,1.9c-4,0-7.5-0.8-10.6-2.5c-3.1-1.7-5.5-4.1-7.3-7.2
			c-1.8-3.1-2.6-6.8-2.6-11c0-4.2,0.9-7.9,2.6-11s4.1-5.5,7.2-7.2c3.1-1.7,6.7-2.5,10.7-2.5c4,0,7.5,0.8,10.6,2.4
			c3.1,1.6,5.5,4,7.2,7c1.7,3,2.6,6.6,2.6,10.8C145.9,65.6,145.9,66.7,145.7,67.8z M131.5,60.9c0-1.7-0.6-3.1-1.7-4.1
			c-1.2-1-2.6-1.5-4.3-1.5c-1.7,0-3.1,0.5-4.2,1.4c-1.1,0.9-1.8,2.3-2.2,4.1H131.5z"/>
		<path class="st1" d="M189.2,49c2.7,3.1,4.1,7.3,4.1,12.6v23.5h-14.1V63.5c0-2.3-0.6-4.1-1.8-5.4c-1.2-1.3-2.8-2-4.8-2
			c-2.1,0-3.8,0.7-5,2c-1.2,1.3-1.8,3.1-1.8,5.4v21.7h-14.1V44.7h14.1v5.8c1.2-1.8,2.9-3.3,5-4.4c2.1-1.1,4.5-1.7,7.3-1.7
			C182.8,44.4,186.5,45.9,189.2,49z"/>
		<path class="st1" d="M260.3,34.4v50.8h-14.1v-28l-9.6,28h-11.8l-9.6-28.2v28.2h-14.1V34.4h17.1l12.7,33l12.5-33H260.3z"/>
		<path class="st1" d="M268.4,54c1.5-3.1,3.6-5.5,6.2-7.2c2.6-1.7,5.5-2.5,8.7-2.5c2.8,0,5.2,0.6,7.2,1.7c2,1.1,3.6,2.6,4.7,4.5
			v-5.6h14.1v40.4h-14.1v-5.6c-1.1,1.9-2.7,3.4-4.7,4.5c-2,1.1-4.4,1.7-7.2,1.7c-3.2,0-6.1-0.8-8.7-2.5c-2.6-1.7-4.7-4.1-6.2-7.2
			c-1.5-3.1-2.3-6.8-2.3-11C266.1,60.7,266.9,57.1,268.4,54z M293.1,58.8c-1.4-1.5-3.2-2.2-5.2-2.2c-2.1,0-3.9,0.7-5.3,2.2
			c-1.4,1.5-2.1,3.5-2.1,6.2c0,2.6,0.7,4.6,2.1,6.2c1.4,1.5,3.1,2.3,5.3,2.3c2.1,0,3.8-0.7,5.2-2.2c1.4-1.5,2.1-3.6,2.1-6.2
			C295.2,62.3,294.5,60.3,293.1,58.8z"/>
		<path class="st1" d="M337.2,46.4c2.3-1.3,4.7-2,7.3-2v15h-4c-3.1,0-5.4,0.6-6.8,1.8c-1.5,1.2-2.2,3.3-2.2,6.3v17.6h-14.1V44.7
			h14.1v7.1C333.1,49.6,335,47.7,337.2,46.4z"/>
		<path class="st1" d="M374.8,85.1l-11.2-16.6v16.6h-14.1V31.9h14.1v28.7l11.2-15.8h16.9l-15.9,20.3L392,85.1H374.8z"/>
		<path class="st1" d="M434.5,67.8h-26.7c0.1,2.2,0.8,3.9,1.8,4.9s2.5,1.6,4.1,1.6c2.4,0,4-1.1,5-3.2h15c-0.6,2.8-1.8,5.3-3.6,7.5
			c-1.8,2.2-4.1,3.9-6.8,5.1c-2.7,1.2-5.8,1.9-9.1,1.9c-4,0-7.5-0.8-10.6-2.5c-3.1-1.7-5.5-4.1-7.3-7.2c-1.8-3.1-2.6-6.8-2.6-11
			c0-4.2,0.9-7.9,2.6-11c1.7-3.1,4.1-5.5,7.2-7.2c3.1-1.7,6.7-2.5,10.7-2.5c4,0,7.5,0.8,10.6,2.4c3.1,1.6,5.5,4,7.2,7
			c1.7,3,2.6,6.6,2.6,10.8C434.7,65.6,434.7,66.7,434.5,67.8z M420.3,60.9c0-1.7-0.6-3.1-1.7-4.1c-1.2-1-2.6-1.5-4.3-1.5
			s-3.1,0.5-4.2,1.4c-1.1,0.9-1.8,2.3-2.2,4.1H420.3z"/>
		<path class="st1" d="M464.3,73.1v12h-6.1c-10.3,0-15.5-5.1-15.5-15.3V56.5h-5V44.7h5V35h14.2v9.8h7.3v11.7h-7.3V70
			c0,1.1,0.3,1.9,0.8,2.4c0.5,0.5,1.4,0.7,2.6,0.7H464.3z"/>
	</g>
	<g class="st0">
		<path class="st2" d="M478.5,39c-1.5-1.4-2.3-3.1-2.3-5.1c0-2.1,0.8-3.9,2.3-5.3c1.5-1.4,3.5-2.1,6-2.1c2.4,0,4.4,0.7,5.9,2.1
			c1.5,1.4,2.3,3.1,2.3,5.3c0,2.1-0.8,3.8-2.3,5.1c-1.5,1.4-3.5,2.1-5.9,2.1C482.1,41,480.1,40.3,478.5,39z M491.5,44.7v40.4h-14.1
			V44.7H491.5z"/>
	</g>
	<g class="st0">
		<path class="st1" d="M538.1,49c2.7,3.1,4.1,7.3,4.1,12.6v23.5h-14.1V63.5c0-2.3-0.6-4.1-1.8-5.4c-1.2-1.3-2.8-2-4.8-2
			c-2.1,0-3.8,0.7-5,2c-1.2,1.3-1.8,3.1-1.8,5.4v21.7h-14.1V44.7h14.1v5.8c1.2-1.8,2.9-3.3,5-4.4c2.1-1.1,4.5-1.7,7.3-1.7
			C531.7,44.4,535.4,45.9,538.1,49z"/>
		<path class="st1" d="M572.1,45.9c2,1.1,3.6,2.6,4.7,4.5v-5.6h14.1v40c0,3.8-0.7,7.2-2.2,10.3c-1.4,3-3.7,5.5-6.7,7.3
			c-3,1.8-6.9,2.7-11.6,2.7c-6.2,0-11.2-1.5-15-4.4c-3.7-2.9-5.9-6.9-6.4-12H563c0.3,1.3,1,2.3,2.2,3c1.2,0.7,2.6,1.1,4.5,1.1
			c4.8,0,7.2-2.7,7.2-8.1v-5.2c-1.1,1.9-2.7,3.4-4.7,4.5c-2,1.1-4.4,1.7-7.2,1.7c-3.2,0-6.1-0.8-8.7-2.5c-2.6-1.7-4.7-4.1-6.2-7.2
			c-1.5-3.1-2.3-6.8-2.3-11c0-4.2,0.8-7.8,2.3-10.9c1.5-3.1,3.6-5.5,6.2-7.2c2.6-1.7,5.5-2.5,8.7-2.5
			C567.6,44.2,570,44.8,572.1,45.9z M574.7,58.8c-1.4-1.5-3.2-2.2-5.2-2.2c-2.1,0-3.9,0.7-5.3,2.2c-1.4,1.5-2.1,3.5-2.1,6.2
			c0,2.6,0.7,4.6,2.1,6.2c1.4,1.5,3.1,2.3,5.3,2.3c2.1,0,3.8-0.7,5.2-2.2c1.4-1.5,2.1-3.6,2.1-6.2C576.8,62.3,576.1,60.3,574.7,58.8
			z"/>
	</g>
	<path class="st2" d="M484.5,0L484.5,0c2.1,0,3.8,1.7,3.8,3.8v15.3c0,2.1-1.7,3.8-3.8,3.8l0,0c-2.1,0-3.8-1.7-3.8-3.8V3.8
		C480.7,1.7,482.4,0,484.5,0z"/>
	<path class="st2" d="M457.3,10.3L457.3,10.3c1.5-1.5,3.9-1.5,5.4,0l10.8,10.8c1.5,1.5,1.5,3.9,0,5.4l0,0c-1.5,1.5-3.9,1.5-5.4,0
		l-10.8-10.8C455.8,14.2,455.8,11.8,457.3,10.3z"/>
	<path class="st2" d="M512.1,10.4L512.1,10.4c1.5,1.5,1.5,3.9,0,5.4l-10.8,10.8c-1.5,1.5-3.9,1.5-5.4,0l0,0c-1.5-1.5-1.5-3.9,0-5.4
		l10.8-10.8C508.2,9,510.6,9,512.1,10.4z"/>
</g>
</svg>
